<?xml version="1.0" standalone="no"?>
<!DOCTYPE svg PUBLIC "-//W3C//DTD SVG 20010904//EN"
 "http://www.w3.org/TR/2001/REC-SVG-20010904/DTD/svg10.dtd">
<svg version="1.0" xmlns="http://www.w3.org/2000/svg"
 width="401.000000pt" height="241.000000pt" viewBox="0 0 401.000000 241.000000"
 preserveAspectRatio="xMidYMid meet">
<metadata>
Created by potrace 1.15, written by Peter Selinger 2001-2017
</metadata>
<g transform="translate(0.000000,241.000000) scale(0.100000,-0.100000)"
fill="#000000" stroke="none">
<path d="M3020 2232 c-107 -38 -247 -88 -310 -111 l-115 -43 3 -38 c4 -36 5
-38 47 -42 86 -10 197 -85 251 -169 36 -58 57 -144 49 -203 -9 -69 -58 -170
-98 -200 -55 -41 -152 -58 -223 -37 -23 6 -31 5 -31 -4 0 -40 185 -43 424 -6
l112 17 6 -51 c14 -114 14 -118 -25 -127 -19 -4 -114 -13 -210 -18 -141 -9
-189 -8 -241 2 l-65 14 4 -27 c3 -23 11 -29 47 -38 67 -17 321 -14 435 5 l99
17 313 217 313 217 3 120 c1 67 -2 132 -8 148 -10 26 -13 27 -53 21 -23 -3
-74 -9 -113 -13 l-72 -6 -12 88 c-23 159 -107 280 -218 313 -92 28 -107 25
-312 -46z m303 -12 c112 -42 168 -136 175 -295 l4 -100 -118 -86 c-219 -159
-497 -333 -482 -303 2 5 19 41 38 79 30 61 34 80 34 145 0 60 -5 87 -26 132
-51 111 -176 210 -282 224 -25 4 -46 10 -46 13 0 4 78 32 173 64 94 32 226 77
292 101 139 50 165 53 238 26z m402 -389 c-3 -6 -135 -97 -293 -203 -307 -206
-306 -205 -464 -223 l-63 -7 70 37 c91 48 289 181 439 294 l120 90 75 6 c42 3
83 8 91 9 28 6 31 6 25 -3z m39 -43 c3 -13 6 -49 6 -81 l0 -57 -52 -38 c-111
-80 -523 -361 -530 -362 -6 0 -16 65 -21 139 -2 20 38 51 288 222 160 109 293
198 296 199 4 0 9 -10 13 -22z"/>
<path d="M256 2169 c-100 -15 -180 -39 -201 -61 l-20 -20 65 5 c36 3 73 8 82
12 40 16 43 -17 42 -476 l-1 -437 111 -7 c228 -14 457 45 528 135 24 31 25 36
22 182 -2 148 -3 152 -31 192 -38 53 -105 94 -179 108 l-61 11 45 75 c49 81
57 131 32 191 -32 79 -230 120 -434 90z m267 -88 c36 -35 43 -84 23 -153 -14
-50 -77 -140 -89 -128 -3 3 -7 76 -9 162 l-3 157 25 -6 c14 -3 38 -17 53 -32z
m137 -356 c72 -37 78 -135 14 -264 -40 -81 -101 -147 -190 -206 -50 -34 -84
-44 -84 -27 0 5 6 53 14 108 8 54 18 161 22 236 5 101 10 141 21 149 36 30
148 32 203 4z"/>
<path d="M2606 1872 c-3 -5 12 -12 35 -16 121 -19 189 -115 160 -224 -20 -71
-94 -105 -149 -66 -40 28 -46 51 -23 95 15 29 17 39 7 39 -34 0 -48 -100 -18
-136 45 -56 115 -60 170 -10 l37 34 0 85 c0 80 -2 88 -31 124 -16 21 -47 46
-68 57 -44 22 -111 32 -120 18z"/>
<path d="M195 1056 c-90 -18 -155 -44 -155 -63 0 -16 25 -15 122 3 35 6 38 5
45 -22 4 -16 8 -221 7 -456 0 -236 0 -428 0 -429 1 0 64 -3 142 -6 242 -9 428
43 505 141 20 26 22 39 22 167 l0 140 -33 48 c-49 72 -131 120 -207 121 -18 0
-33 4 -33 9 0 6 19 40 42 77 36 58 42 75 42 120 -1 70 -22 100 -92 132 -52 24
-70 27 -197 29 -86 1 -167 -3 -210 -11z m289 -56 c36 -13 66 -67 66 -115 0
-61 -70 -195 -101 -195 -5 0 -9 72 -11 160 -3 171 -4 169 46 150z m162 -380
c53 -26 69 -61 61 -137 -7 -71 -62 -184 -114 -237 -81 -82 -185 -148 -198
-126 -3 5 1 49 10 97 9 48 18 149 21 223 3 74 7 145 10 157 9 44 138 58 210
23z"/>
<path d="M3290 873 l0 -90 -31 -7 c-17 -3 -96 -6 -175 -6 -78 0 -154 -4 -168
-10 -14 -5 -35 -24 -46 -42 -29 -49 -60 -194 -60 -286 0 -156 56 -241 164
-250 50 -4 59 -1 169 63 65 37 114 71 111 76 -3 6 -21 1 -42 -12 -70 -42 -164
-89 -178 -89 -10 0 -14 14 -14 54 0 98 7 114 64 143 82 41 114 70 122 107 8
44 -12 138 -36 169 l-20 25 40 6 c21 3 50 2 64 -4 l26 -10 0 -155 c0 -256 49
-405 133 -405 23 0 174 83 159 88 -6 2 -32 -8 -59 -22 -44 -24 -48 -25 -55 -8
-9 22 -8 469 1 502 6 23 13 26 86 32 109 10 138 16 161 33 17 14 6 15 -121 13
l-140 -3 -10 67 c-5 37 -17 74 -26 83 -8 9 -39 18 -67 22 l-52 6 0 -90z"/>
<path d="M2655 694 c-11 -3 -29 -7 -40 -9 -13 -3 -20 -12 -20 -29 0 -20 3 -22
18 -15 22 12 22 -4 1 -67 -10 -30 -15 -82 -16 -152 l0 -106 45 -61 c48 -67 89
-93 165 -102 38 -4 51 -2 62 12 13 15 5 26 -82 108 -89 86 -118 121 -118 146
0 5 24 34 54 63 45 45 54 61 60 101 4 26 5 56 1 66 -9 28 -86 54 -130 45z"/>
</g>
</svg>
